<?xml version="1.0" encoding="utf-8"?>
<!-- Generator: Adobe Illustrator 23.0.3, SVG Export Plug-In . SVG Version: 6.00 Build 0)  -->
<svg version="1.1" id="Layer_1" xmlns="http://www.w3.org/2000/svg" xmlns:xlink="http://www.w3.org/1999/xlink" x="0px" y="0px"
	 viewBox="0 0 44 44" style="enable-background:new 0 0 44 44;" xml:space="preserve">
<style type="text/css">
	.st0{fill-rule:evenodd;clip-rule:evenodd;fill:#AAAAAA;}
</style>
<path class="st0" d="M41.9,13.5C41.9,13.4,41.9,13.4,41.9,13.5l0.1,0l0,0c0.7-0.2,1-0.6,1-1.3c0-0.6-0.2-1.1-0.7-1.6l0,0l0,0
	L42,10.2c-0.1,0-0.2-0.1-0.3-0.2l0,0L41.5,10l-0.1-0.1c-1.4-1.6-2.6-3-3.4-4.2C37.2,4.5,36.5,3,36,1.4c-0.1-0.3-0.3-0.3-0.4-0.4
	c-0.1,0-0.1,0-0.1,0c0,0-0.1,0-0.1,0c-0.1,0.1-0.2,0.1-0.3,0.4c-0.1,0.3-0.1,0.5,0,0.8c0.7,2,1.9,4,3.3,5.9l2.2,2.9l-3.4-1.4
	l-5.7-2.3c-1.1-0.5-2.8-1.1-5-1.8c-2.1-0.7-4.1-1.2-5.9-1.5c-2-0.3-3.8-0.5-5.5-0.5c-2.2,0-4.1,0.3-5.9,0.8c-4.5,1.4-7,4.4-7.8,9.2
	c-0.6,3.8,0,7.7,2,11.6c1.6,3,3.7,5.8,6.4,8.3c2.7,2.5,5.7,4.6,8.8,6.1c3.1,1.5,6.4,2.6,9.9,3.1c1.5,0.2,3,0.4,4.4,0.4
	c1.8,0,3.5-0.2,5.1-0.6c0.1,0,0.2-0.1,0.3-0.2c0.1-0.2,0.2-0.4,0.1-0.7c0-0.3-0.2-0.4-0.2-0.5c-0.1-0.1-0.2-0.1-0.2-0.1
	c0,0-0.1,0-0.1,0c-1.5,0.3-3.1,0.5-4.8,0.5c-1.4,0-3-0.1-4.5-0.4c-3.3-0.6-6.5-1.6-9.5-3.1c-3-1.5-5.9-3.4-8.5-5.8
	c-2.6-2.4-4.7-5.1-6.2-8c-1.7-3.4-2.3-6.9-1.7-10.3c0.7-4,3-6.7,7-8C11,5.4,12.9,5.1,15,5.1c1.7,0,3.5,0.2,5.4,0.5
	c1,0.2,2.1,0.4,3.2,0.7c1.1,0.3,2,0.5,2.8,0.8c0.8,0.2,1.9,0.6,3.2,1.1l2.8,1.1l3.2,1.3c1.5,0.6,2.5,1,2.8,1.1l1.9,0.7l-1.7,1.1
	c-1.6,1-3.6,2.4-6,4.2c-0.2,0.2-0.3,0.3-0.3,0.6c0,0.2,0,0.4,0.1,0.7c0.2,0.3,0.3,0.3,0.4,0.3c0,0,0.1,0,0.1,0c0,0,0.1,0,0.2-0.1
	c3.3-2.5,6-4.4,8.3-5.6l0.3-0.2l0.2,0C41.8,13.5,41.8,13.5,41.9,13.5z"/>
</svg>
