<?xml version="1.0" encoding="utf-8"?>
<!-- Generator: Adobe Illustrator 23.0.2, SVG Export Plug-In . SVG Version: 6.00 Build 0)  -->
<svg version="1.1" id="Layer_1" xmlns="http://www.w3.org/2000/svg" xmlns:xlink="http://www.w3.org/1999/xlink" x="0px" y="0px"
	 viewBox="0 0 603.2 121.2" enable-background="new 0 0 603.2 121.2" xml:space="preserve">
<g>
	<g>
		<path fill="#262626" d="M24.9,115.6V84.3H32v25.3h12.4v6H24.9z"/>
		<path fill="#262626" d="M74.6,115.6V82h6.9v19.3h0.2l7.5-9.5h7.7l-8.4,9.8l9,14h-7.6l-5.4-9.3l-3,3.4v5.9H74.6z"/>
		<path fill="#262626" d="M120.7,116.2c-2,0-4.1-0.4-6.1-1.1c-2-0.8-3.8-1.9-5.4-3.4l4-4.8c1.1,1,2.4,1.7,3.7,2.4
			c1.4,0.6,2.7,0.9,4,0.9c1.5,0,2.6-0.3,3.3-0.8c0.7-0.5,1.1-1.3,1.1-2.2c0-0.5-0.1-0.9-0.3-1.2c-0.2-0.4-0.5-0.7-0.9-0.9
			c-0.4-0.3-0.9-0.5-1.4-0.8c-0.6-0.2-1.2-0.5-1.8-0.8l-4.1-1.7c-0.8-0.3-1.6-0.7-2.3-1.2c-0.8-0.5-1.4-1.1-2-1.8
			c-0.6-0.7-1.1-1.5-1.4-2.4c-0.4-0.9-0.5-1.9-0.5-3.1c0-1.3,0.3-2.5,0.8-3.6c0.5-1.1,1.3-2.1,2.3-3c1-0.8,2.2-1.5,3.5-2
			c1.4-0.5,2.9-0.7,4.5-0.7c1.8,0,3.6,0.4,5.4,1.1c1.8,0.7,3.3,1.7,4.7,3.1l-3.6,4.5c-1-0.8-2-1.4-3.1-1.8c-1-0.4-2.2-0.6-3.4-0.6
			c-1.2,0-2.2,0.2-2.9,0.7c-0.7,0.5-1.1,1.2-1.1,2.1c0,0.5,0.1,0.9,0.4,1.2c0.2,0.3,0.6,0.6,1,0.9c0.4,0.3,0.9,0.5,1.5,0.8
			c0.6,0.2,1.2,0.5,1.9,0.8l4,1.6c1.9,0.8,3.4,1.8,4.5,3.2c1.1,1.3,1.7,3.1,1.7,5.3c0,1.3-0.3,2.6-0.8,3.7c-0.5,1.2-1.3,2.2-2.3,3.1
			c-1,0.9-2.2,1.6-3.7,2.1C124.2,115.9,122.5,116.2,120.7,116.2z"/>
		<path fill="#262626" d="M142.8,116.2c-1.1,0-2.1-0.2-3-0.6c-0.9-0.4-1.6-0.9-2.2-1.5c-0.6-0.7-1.1-1.4-1.4-2.3s-0.5-1.8-0.5-2.8
			c0-2.5,1.1-4.4,3.2-5.9c2.1-1.4,5.5-2.4,10.2-2.8c-0.1-1.1-0.4-1.9-0.9-2.5c-0.6-0.6-1.5-0.9-2.8-0.9c-1,0-2,0.2-3,0.6
			c-1,0.4-2.1,0.9-3.2,1.6l-2.5-4.7c1.5-0.9,3.1-1.7,4.8-2.3c1.7-0.6,3.5-0.9,5.4-0.9c3.1,0,5.4,0.9,7,2.6c1.6,1.7,2.4,4.5,2.4,8.1
			v13.6h-5.8l-0.5-2.4h-0.2c-1,0.9-2.1,1.6-3.2,2.2C145.4,115.9,144.2,116.2,142.8,116.2z M145.2,110.7c0.8,0,1.5-0.2,2.1-0.5
			c0.6-0.4,1.2-0.8,1.8-1.5v-4.2c-2.5,0.4-4.2,0.9-5.2,1.5c-1,0.7-1.4,1.5-1.4,2.4c0,0.8,0.2,1.3,0.7,1.7
			C143.7,110.5,144.4,110.7,145.2,110.7z"/>
		<path fill="#262626" d="M174.1,116.2c-1.1,0-2.1-0.3-3.2-0.8c-1.1-0.5-2.1-1.3-3-2.3h-0.2l-0.6,2.5h-5.5V82h7.1v8.3l-0.2,3.6
			c0.9-0.8,1.9-1.5,3-1.9c1.1-0.5,2.2-0.7,3.3-0.7c1.4,0,2.7,0.3,3.9,0.9c1.2,0.6,2.1,1.4,3,2.4c0.8,1,1.4,2.3,1.9,3.8
			c0.4,1.5,0.6,3.1,0.6,5c0,2-0.3,3.9-0.8,5.5c-0.6,1.6-1.3,3-2.3,4.1c-0.9,1.1-2,1.9-3.2,2.5C176.6,115.9,175.3,116.2,174.1,116.2z
			 M172.4,110.4c1.2,0,2.3-0.6,3.1-1.7c0.9-1.1,1.3-2.9,1.3-5.4c0-4.3-1.4-6.4-4.1-6.4c-1.4,0-2.8,0.7-4.1,2.2v9.7
			c0.6,0.6,1.3,1,1.9,1.2C171.2,110.3,171.8,110.4,172.4,110.4z"/>
		<path fill="#262626" d="M188.6,115.6V82h7.1v8.3l-0.3,4.3c0.9-0.8,1.9-1.5,3.1-2.2c1.2-0.7,2.6-1,4.2-1c2.6,0,4.5,0.8,5.6,2.5
			c1.2,1.7,1.8,4,1.8,7.1v14.8H203v-13.9c0-1.7-0.2-2.9-0.7-3.6c-0.5-0.6-1.2-1-2.2-1c-0.9,0-1.7,0.2-2.3,0.6
			c-0.6,0.4-1.3,1-2.1,1.7v16.1H188.6z"/>
		<path fill="#262626" d="M221.3,116.2c-1.1,0-2.1-0.2-3-0.6c-0.9-0.4-1.6-0.9-2.2-1.5c-0.6-0.7-1.1-1.4-1.4-2.3s-0.5-1.8-0.5-2.8
			c0-2.5,1.1-4.4,3.2-5.9c2.1-1.4,5.5-2.4,10.2-2.8c-0.1-1.1-0.4-1.9-0.9-2.5c-0.6-0.6-1.5-0.9-2.8-0.9c-1,0-2,0.2-3,0.6
			c-1,0.4-2.1,0.9-3.2,1.6l-2.5-4.7c1.5-0.9,3.1-1.7,4.8-2.3c1.7-0.6,3.5-0.9,5.4-0.9c3.1,0,5.4,0.9,7,2.6c1.6,1.7,2.4,4.5,2.4,8.1
			v13.6h-5.8l-0.5-2.4h-0.2c-1,0.9-2.1,1.6-3.2,2.2C223.8,115.9,222.6,116.2,221.3,116.2z M223.7,110.7c0.8,0,1.5-0.2,2.1-0.5
			c0.6-0.4,1.2-0.8,1.8-1.5v-4.2c-2.5,0.4-4.2,0.9-5.2,1.5c-1,0.7-1.4,1.5-1.4,2.4c0,0.8,0.2,1.3,0.7,1.7
			C222.2,110.5,222.8,110.7,223.7,110.7z"/>
		<path fill="#262626" d="M250.7,115.6V84.3h19.6v6h-12.5v6.3h10.7v5.9h-10.7v7.2h13v6H250.7z"/>
		<path fill="#262626" d="M281.9,116.2c-1.2,0-2.2-0.2-3.1-0.6c-0.8-0.4-1.5-0.9-2-1.6c-0.5-0.7-0.9-1.5-1.1-2.5
			c-0.2-1-0.3-2.1-0.3-3.3V82h7.1v26.5c0,0.7,0.1,1.2,0.4,1.5c0.3,0.3,0.6,0.4,0.8,0.4c0.2,0,0.3,0,0.4,0c0.1,0,0.3,0,0.5-0.1
			l0.9,5.2c-0.4,0.2-0.9,0.3-1.5,0.4C283.4,116.1,282.7,116.2,281.9,116.2z"/>
		<path fill="#262626" d="M299.3,116.2c-1.7,0-3.3-0.3-4.8-0.8c-1.5-0.6-2.8-1.4-3.8-2.4c-1.1-1.1-1.9-2.4-2.5-3.9
			c-0.6-1.5-0.9-3.3-0.9-5.3c0-1.9,0.3-3.7,1-5.2c0.6-1.6,1.5-2.9,2.5-3.9c1-1.1,2.2-1.9,3.6-2.5c1.3-0.6,2.7-0.9,4.2-0.9
			c1.7,0,3.2,0.3,4.4,0.9c1.3,0.6,2.3,1.4,3.2,2.4c0.8,1,1.5,2.2,1.9,3.6c0.4,1.4,0.6,2.9,0.6,4.5c0,0.6,0,1.2-0.1,1.8
			c-0.1,0.6-0.1,1-0.2,1.3h-14.3c0.3,1.7,1,3,2.1,3.8s2.5,1.2,4.1,1.2c1.7,0,3.4-0.5,5.1-1.6l2.4,4.3c-1.2,0.8-2.6,1.5-4.1,2
			S300.7,116.2,299.3,116.2z M294,101.1h8.6c0-1.3-0.3-2.4-0.9-3.3s-1.6-1.2-3.1-1.2c-1.1,0-2.1,0.4-3,1.1
			C294.8,98.5,294.3,99.6,294,101.1z"/>
		<path fill="#262626" d="M323.4,116.2c-1.7,0-3.2-0.3-4.6-0.8c-1.4-0.6-2.7-1.4-3.7-2.4c-1.1-1.1-1.9-2.4-2.5-3.9
			c-0.6-1.6-0.9-3.3-0.9-5.3c0-2,0.3-3.8,1-5.3c0.7-1.6,1.6-2.9,2.7-3.9c1.1-1.1,2.5-1.9,4-2.4c1.5-0.6,3.1-0.8,4.7-0.8
			c1.5,0,2.8,0.2,3.9,0.7c1.1,0.5,2.2,1.1,3,1.8l-3.3,4.6c-1.1-0.9-2.2-1.4-3.2-1.4c-1.7,0-3.1,0.6-4.1,1.8c-1,1.2-1.5,2.9-1.5,4.9
			s0.5,3.7,1.5,4.9c1,1.2,2.3,1.8,3.8,1.8c0.8,0,1.5-0.2,2.2-0.5c0.7-0.3,1.4-0.7,2-1.2l2.8,4.6c-1.2,1-2.5,1.8-3.8,2.2
			C326,116,324.7,116.2,323.4,116.2z"/>
		<path fill="#262626" d="M344.7,116.2c-1.5,0-2.7-0.2-3.8-0.7c-1-0.4-1.9-1.1-2.5-1.9c-0.7-0.8-1.1-1.8-1.4-2.9
			c-0.3-1.1-0.5-2.4-0.5-3.8v-9.6h-3.3v-5.2l3.6-0.3l0.8-6.3h5.9v6.3h5.7v5.5h-5.7v9.6c0,1.3,0.3,2.3,0.8,2.9
			c0.6,0.6,1.3,0.9,2.2,0.9c0.4,0,0.8,0,1.2-0.1c0.4-0.1,0.8-0.2,1.1-0.3l1.1,5.1c-0.6,0.2-1.4,0.4-2.3,0.6S345.9,116.2,344.7,116.2
			z"/>
		<path fill="#262626" d="M357,88.3c-1.2,0-2.2-0.3-2.9-1c-0.8-0.7-1.2-1.6-1.2-2.7s0.4-2,1.2-2.6c0.8-0.7,1.7-1,2.9-1
			c1.2,0,2.2,0.3,3,1c0.8,0.7,1.1,1.6,1.1,2.6s-0.4,2-1.1,2.7C359.2,88,358.2,88.3,357,88.3z M353.5,115.6V91.8h7.1v23.8H353.5z"/>
		<path fill="#262626" d="M376.4,116.2c-1.5,0-3-0.3-4.4-0.8c-1.4-0.6-2.6-1.4-3.7-2.4c-1.1-1.1-1.9-2.4-2.6-3.9
			c-0.6-1.6-1-3.3-1-5.3c0-2,0.3-3.8,1-5.3c0.6-1.6,1.5-2.9,2.6-3.9c1.1-1.1,2.3-1.9,3.7-2.4c1.4-0.6,2.9-0.8,4.4-0.8
			c1.5,0,3,0.3,4.3,0.8c1.4,0.6,2.6,1.4,3.7,2.4c1.1,1.1,1.9,2.4,2.6,3.9c0.6,1.6,1,3.3,1,5.3c0,2-0.3,3.8-1,5.3
			c-0.6,1.6-1.5,2.9-2.6,3.9c-1.1,1.1-2.3,1.9-3.7,2.4S377.9,116.2,376.4,116.2z M376.4,110.5c1.4,0,2.5-0.6,3.3-1.8
			c0.7-1.2,1.1-2.9,1.1-4.9s-0.4-3.7-1.1-4.9c-0.7-1.2-1.8-1.8-3.3-1.8c-1.5,0-2.6,0.6-3.3,1.8c-0.7,1.2-1.1,2.9-1.1,4.9
			s0.4,3.7,1.1,4.9C373.8,109.9,374.9,110.5,376.4,110.5z"/>
		<path fill="#262626" d="M392.3,115.6V91.8h5.8l0.5,3h0.2c1-1,2.1-1.8,3.4-2.5c1.2-0.7,2.6-1.1,4.3-1.1c2.6,0,4.5,0.8,5.6,2.5
			c1.2,1.7,1.8,4,1.8,7.1v14.8h-7.1v-13.9c0-1.7-0.2-2.9-0.7-3.6c-0.5-0.6-1.2-1-2.2-1c-0.9,0-1.7,0.2-2.3,0.6
			c-0.6,0.4-1.3,1-2.1,1.7v16.1H392.3z"/>
		<path fill="#262626" d="M429.9,115.6V84.3h11.3c1.7,0,3.2,0.2,4.7,0.5c1.5,0.3,2.7,0.9,3.8,1.6c1.1,0.8,2,1.8,2.6,3
			c0.6,1.2,1,2.8,1,4.7c0,2.3-0.5,4.2-1.5,5.7c-1,1.5-2.4,2.6-4.1,3.3l7.1,12.5h-7.9l-6-11.3H437v11.3H429.9z M437,98.7h3.6
			c1.9,0,3.3-0.4,4.2-1.2c1-0.8,1.5-1.9,1.5-3.5c0-1.5-0.5-2.6-1.5-3.2c-1-0.6-2.4-0.9-4.2-0.9H437V98.7z"/>
		<path fill="#262626" d="M468.6,116.2c-1.7,0-3.3-0.3-4.8-0.8c-1.5-0.6-2.8-1.4-3.8-2.4c-1.1-1.1-1.9-2.4-2.5-3.9s-0.9-3.3-0.9-5.3
			c0-1.9,0.3-3.7,1-5.2c0.6-1.6,1.5-2.9,2.5-3.9c1-1.1,2.2-1.9,3.6-2.5s2.7-0.9,4.2-0.9c1.7,0,3.2,0.3,4.4,0.9
			c1.3,0.6,2.3,1.4,3.2,2.4c0.8,1,1.5,2.2,1.9,3.6s0.6,2.9,0.6,4.5c0,0.6,0,1.2-0.1,1.8c-0.1,0.6-0.1,1-0.2,1.3h-14.3
			c0.3,1.7,1,3,2.1,3.8c1.1,0.8,2.5,1.2,4.1,1.2c1.7,0,3.4-0.5,5.1-1.6l2.4,4.3c-1.2,0.8-2.6,1.5-4.1,2S470,116.2,468.6,116.2z
			 M463.3,101.1h8.6c0-1.3-0.3-2.4-0.9-3.3c-0.6-0.8-1.6-1.2-3.1-1.2c-1.1,0-2.1,0.4-3,1.1C464.1,98.5,463.5,99.6,463.3,101.1z"/>
		<path fill="#262626" d="M489.2,116.2c-1.6,0-3.2-0.3-4.8-0.9s-3.1-1.4-4.3-2.4l3.2-4.4c1.1,0.8,2.1,1.5,3.1,1.9c1,0.4,2,0.6,3,0.6
			c1.1,0,1.8-0.2,2.3-0.5c0.5-0.4,0.7-0.8,0.7-1.5c0-0.4-0.1-0.7-0.4-1c-0.3-0.3-0.6-0.6-1.1-0.8c-0.5-0.3-1-0.5-1.6-0.7
			c-0.6-0.2-1.2-0.4-1.8-0.7c-0.7-0.3-1.5-0.6-2.2-1c-0.7-0.4-1.4-0.9-2-1.4c-0.6-0.6-1.1-1.2-1.5-2c-0.4-0.8-0.6-1.6-0.6-2.6
			c0-1.1,0.2-2.1,0.6-3c0.4-0.9,1-1.7,1.8-2.4c0.8-0.6,1.8-1.1,2.9-1.5c1.1-0.4,2.4-0.6,3.7-0.6c1.8,0,3.4,0.3,4.8,0.9
			c1.4,0.6,2.6,1.3,3.6,2.1l-3.2,4.2c-0.9-0.6-1.7-1.1-2.5-1.5c-0.8-0.4-1.7-0.5-2.5-0.5c-1.8,0-2.7,0.6-2.7,1.9
			c0,0.4,0.1,0.7,0.4,1c0.3,0.3,0.6,0.5,1,0.7c0.4,0.2,0.9,0.4,1.5,0.6c0.6,0.2,1.1,0.4,1.8,0.6c0.8,0.3,1.5,0.6,2.3,1
			c0.8,0.4,1.4,0.8,2.1,1.4c0.6,0.5,1.1,1.2,1.5,2c0.4,0.8,0.6,1.7,0.6,2.8c0,1.1-0.2,2.1-0.6,3c-0.4,0.9-1,1.7-1.9,2.4
			c-0.8,0.7-1.9,1.2-3.1,1.6S490.8,116.2,489.2,116.2z"/>
		<path fill="#262626" d="M510.2,116.2c-2.6,0-4.5-0.8-5.6-2.5c-1.2-1.7-1.8-4-1.8-7.1V91.8h7.1v13.9c0,1.7,0.2,2.9,0.7,3.6
			c0.5,0.6,1.2,1,2.3,1c0.9,0,1.6-0.2,2.3-0.6c0.6-0.4,1.3-1.1,2-2V91.8h7.1v23.8h-5.8l-0.5-3.3h-0.1c-1,1.2-2.1,2.2-3.3,2.9
			C513.3,115.9,511.9,116.2,510.2,116.2z"/>
		<path fill="#262626" d="M536.2,116.2c-1.2,0-2.2-0.2-3.1-0.6c-0.8-0.4-1.5-0.9-2-1.6c-0.5-0.7-0.9-1.5-1.1-2.5
			c-0.2-1-0.3-2.1-0.3-3.3V82h7.1v26.5c0,0.7,0.1,1.2,0.4,1.5c0.3,0.3,0.6,0.4,0.8,0.4c0.2,0,0.3,0,0.4,0c0.1,0,0.3,0,0.5-0.1
			l0.9,5.2c-0.4,0.2-0.9,0.3-1.5,0.4C537.7,116.1,537,116.2,536.2,116.2z"/>
		<path fill="#262626" d="M552.1,116.2c-1.5,0-2.7-0.2-3.8-0.7s-1.9-1.1-2.5-1.9s-1.1-1.8-1.4-2.9c-0.3-1.1-0.5-2.4-0.5-3.8v-9.6
			h-3.3v-5.2l3.6-0.3l0.8-6.3h5.9v6.3h5.7v5.5H551v9.6c0,1.3,0.3,2.3,0.8,2.9c0.6,0.6,1.3,0.9,2.2,0.9c0.4,0,0.8,0,1.2-0.1
			c0.4-0.1,0.8-0.2,1.1-0.3l1.1,5.1c-0.6,0.2-1.4,0.4-2.3,0.6C554.3,116.1,553.3,116.2,552.1,116.2z"/>
		<path fill="#262626" d="M568.5,116.2c-1.6,0-3.2-0.3-4.8-0.9s-3.1-1.4-4.3-2.4l3.2-4.4c1.1,0.8,2.1,1.5,3.1,1.9c1,0.4,2,0.6,3,0.6
			c1.1,0,1.8-0.2,2.3-0.5c0.5-0.4,0.7-0.8,0.7-1.5c0-0.4-0.1-0.7-0.4-1c-0.3-0.3-0.6-0.6-1.1-0.8c-0.5-0.3-1-0.5-1.6-0.7
			c-0.6-0.2-1.2-0.4-1.8-0.7c-0.7-0.3-1.5-0.6-2.2-1c-0.7-0.4-1.4-0.9-2-1.4c-0.6-0.6-1.1-1.2-1.5-2c-0.4-0.8-0.6-1.6-0.6-2.6
			c0-1.1,0.2-2.1,0.6-3c0.4-0.9,1-1.7,1.8-2.4c0.8-0.6,1.8-1.1,2.9-1.5c1.1-0.4,2.4-0.6,3.7-0.6c1.8,0,3.4,0.3,4.8,0.9
			c1.4,0.6,2.6,1.3,3.6,2.1l-3.2,4.2c-0.9-0.6-1.7-1.1-2.5-1.5c-0.8-0.4-1.7-0.5-2.5-0.5c-1.8,0-2.7,0.6-2.7,1.9
			c0,0.4,0.1,0.7,0.4,1c0.3,0.3,0.6,0.5,1,0.7c0.4,0.2,0.9,0.4,1.5,0.6c0.6,0.2,1.1,0.4,1.8,0.6c0.8,0.3,1.5,0.6,2.3,1
			c0.8,0.4,1.4,0.8,2.1,1.4c0.6,0.5,1.1,1.2,1.5,2c0.4,0.8,0.6,1.7,0.6,2.8c0,1.1-0.2,2.1-0.6,3c-0.4,0.9-1,1.7-1.9,2.4
			c-0.8,0.7-1.9,1.2-3.1,1.6S570.1,116.2,568.5,116.2z"/>
	</g>
</g>
<path fill="#1992F6" stroke="#000088" stroke-miterlimit="10" d="M61.5,106.5h-8.9c-4.2,0-7.5-3.4-7.5-7.5v0c0-4.2,3.4-7.5,7.5-7.5
	h8.9c4.2,0,7.5,3.4,7.5,7.5v0C69,103.2,65.6,106.5,61.5,106.5z"/>
<path fill="#000088" d="M237.1,73.8c1.7,0.2,3.3-1,3.5-2.8c0.2-1.7-1-3.3-2.7-3.6c0.6-3.5,1.5-6.9,2.7-10.1c1.6,0.6,3.5-0.1,4.2-1.8
	c0.7-1.6-0.1-3.5-1.7-4.2c0.8-1.6,1.6-3.1,2.4-4.6L278.1,68l12,5.1c-0.3,0.6-0.6,1.2-0.8,1.9l-12.1-4.9l-38.1-7.9l37,12.2l12.9,1.9
	c-0.1,0.7-0.2,1.3-0.3,2l-13-1.6L236.9,79h129.5l-38.8-2.2l-13,1.6c0-0.7-0.1-1.4-0.3-2l12.9-1.9l37-12.2l-38.1,7.9L313.9,75
	c-0.2-0.7-0.5-1.3-0.8-1.9l12-5.1l32.5-21.3c0.9,1.5,1.7,3.1,2.4,4.6c-1.6,0.7-2.4,2.6-1.7,4.2c0.7,1.6,2.5,2.4,4.2,1.8
	c0.6,1.6,1.1,3.3,1.6,5c0.4,1.7,0.8,3.4,1.1,5.1c-1.7,0.3-2.9,1.9-2.7,3.6c0.2,1.7,1.8,3,3.5,2.8c0.1,1.7,0.2,3.5,0.2,5.2h9.3
	c0-40.9-33.1-74-74-74s-74,33.1-74,74h9.3C236.9,77.2,236.9,75.5,237.1,73.8z M350.9,37.1c-1.4,1.1-1.6,3.1-0.5,4.5
	c1.1,1.4,3,1.7,4.5,0.6c1,1.4,1.9,2.9,2.8,4.4l-34.7,17.5L312.5,72c-0.4-0.6-0.8-1.1-1.3-1.6l10.3-8.1l25.9-29
	C348.6,34.5,349.8,35.8,350.9,37.1z M273.9,20.5c0.7,1.6,2.6,2.4,4.2,1.7c1.6-0.7,2.4-2.5,1.8-4.2c1.6-0.6,3.3-1.1,5-1.6
	c1.7-0.4,3.4-0.8,5.1-1.1c0.3,1.7,1.9,2.9,3.6,2.7c1.7-0.2,3-1.8,2.8-3.5c1.7-0.1,3.5-0.2,5.2-0.2s3.5,0.1,5.2,0.2
	c-0.2,1.7,1.1,3.3,2.8,3.5c1.7,0.2,3.3-1,3.6-2.7c1.7,0.3,3.4,0.7,5.1,1.1c1.7,0.5,3.4,1,5,1.6c-0.6,1.6,0.1,3.5,1.8,4.2
	c1.6,0.7,3.5-0.1,4.2-1.7c1.6,0.8,3.1,1.6,4.6,2.4c1.5,0.9,3,1.8,4.4,2.8c-1,1.4-0.8,3.4,0.6,4.5c1.4,1.1,3.4,0.8,4.5-0.5
	c1.3,1.1,2.6,2.3,3.9,3.6l-29,25.9l-8.1,10.3c-0.5-0.5-1.1-0.9-1.6-1.2l7.8-10.5L334,22.9l-21.3,32.5l-5.1,12
	c-0.6-0.3-1.2-0.6-1.9-0.8l4.9-12.1l7.9-38.1l-12.2,37l-1.9,13c-0.7-0.1-1.3-0.2-2-0.3l1.6-13l-2.2-38.8l-2.2,38.8l1.6,13
	c-0.7,0-1.4,0.1-2,0.3l-1.9-12.9l-12.2-37l7.9,38.1l4.9,12.1c-0.7,0.2-1.3,0.5-1.9,0.8l-5.1-12l-21.3-32.5
	C270.8,22.1,272.3,21.2,273.9,20.5z M259.7,29.7c1.1,1.4,3.1,1.6,4.5,0.5c1.4-1.1,1.7-3,0.6-4.5c1.4-1,2.9-1.9,4.4-2.8l17.5,34.8
	l7.8,10.5c-0.6,0.4-1.1,0.8-1.6,1.3l-8.1-10.3l-29-25.9C257.1,32,258.4,30.8,259.7,29.7z M248.3,42.2c1.4,1,3.4,0.8,4.5-0.6
	c1.1-1.4,0.8-3.4-0.5-4.5c1.1-1.3,2.3-2.6,3.6-3.9l25.9,29l10.3,8.1c-0.5,0.5-0.9,1.1-1.3,1.6l-10.5-7.8l-34.8-17.5
	C246.4,45.1,247.4,43.6,248.3,42.2z"/>
</svg>
